<?xml version="1.0" encoding="UTF-8"?>
<svg xmlns="http://www.w3.org/2000/svg" version="1.1" viewBox="0 0 244.88 188.48">
  <defs>
    <style>
      .cls-1 {
        fill: #231f20;
      }
    </style>
  </defs>
  <!-- Generator: Adobe Illustrator 28.7.2, SVG Export Plug-In . SVG Version: 1.2.0 Build 154)  -->
  <g>
    <g id="Layer_1">
      <g>
        <path class="cls-1" d="M64.78,81.5v33.91c-7.63,1.09-14.2,2.76-18.5,4.84,0,0,17.37-4,36.5-4s38.37,4,38.37,4c-3.88-1.82-8.49-3.19-13.5-4.19v-11.19l-3.33-1.83v-1.67l-1.58-1.42v-2.67l-4.12-2.31-.71,1.18v-2.84l4.83,2.93v-10.29l-7.62-6.79v15.96l-6.29,3.12v15.84c-.76-.02-1.53-.04-2.29-.05v-52.79l-9.5,7.62v8.25l6.69,3.38v33.54c-3.1.02-6.18.14-9.19.35v-39.39l-9.75,6.5ZM97.55,106.39h1v7.21l5.91,1.09v.89l-6.91-1.13v-8.06Z"/>
        <rect class="cls-1" x="87.22" y="97.56" width=".82" height="15.37"/>
        <polygon class="cls-1" points="206.23 64.92 206.23 67.33 212.59 67.33 212.59 88.75 215.31 88.75 215.31 67.33 221.63 67.33 221.63 64.92 206.23 64.92"/>
        <path class="cls-1" d="M144.42,76.71c0-8.77-3.47-12.14-9.15-12.14s-9.38,3.57-9.38,12.37c0,7.28,2.41,12.54,10,12.07l7,4.9,2.82-1.56-6.6-3.98v-.14c3.26-1.29,5.3-4.93,5.3-11.52ZM135.2,86.64c-3.94,0-6.53-2.48-6.53-9.93s2.52-9.69,6.43-9.69,6.53,2.45,6.53,9.93-2.48,9.69-6.43,9.69Z"/>
        <path class="cls-1" d="M196.95,86.64c-2.86,0-4.76-1.16-6.09-2.24l-1.6,2.18c1.36,1.22,3.84,2.52,7.45,2.52,5.1,0,7.96-2.99,7.96-6.6,0-7.34-11.35-6.19-11.35-11.69,0-2.18,1.67-3.74,4.45-3.74,2.01,0,3.47.68,4.66,1.63l1.67-2.11c-1.36-1.12-3.47-2.01-6.15-2.01-4.28,0-7.38,2.79-7.38,6.39,0,7.51,11.35,6.29,11.35,11.69,0,2.21-1.73,3.98-4.96,3.98Z"/>
        <path class="cls-1" d="M166.79,80.45v-15.54h-2.72v15.88c0,4.25-2.18,5.85-5.64,5.85s-5.85-1.9-5.85-6.19v-15.54h-2.72v15.94c0,5.13,2.89,8.23,8.26,8.23s8.67-2.89,8.67-8.63Z"/>
        <polygon class="cls-1" points="186.41 86.33 176 86.33 176 77.87 184.74 77.87 184.74 75.46 176 75.46 176 67.33 185.93 67.33 185.93 64.92 173.29 64.92 173.29 88.75 186.41 88.75 186.41 86.33"/>
        <polygon class="cls-1" points="179.88 101.58 186.24 101.58 186.24 123 188.96 123 188.96 101.58 195.28 101.58 195.28 99.17 179.88 99.17 179.88 101.58"/>
        <path class="cls-1" d="M173.46,115.04c0,4.25-2.18,5.85-5.64,5.85s-5.85-1.9-5.85-6.19v-15.54h-2.72v15.94c0,5.13,2.89,8.23,8.26,8.23s8.67-2.89,8.67-8.63v-15.54h-2.72v15.88Z"/>
        <path class="cls-1" d="M200.66,105.05c0-2.18,1.67-3.74,4.45-3.74,2.01,0,3.47.68,4.66,1.63l1.67-2.11c-1.36-1.12-3.47-2.01-6.15-2.01-4.28,0-7.38,2.79-7.38,6.39,0,7.51,11.35,6.29,11.35,11.69,0,2.21-1.73,3.98-4.96,3.98-2.86,0-4.76-1.16-6.09-2.24l-1.6,2.18c1.36,1.22,3.84,2.52,7.45,2.52,5.1,0,7.96-2.99,7.96-6.6,0-7.34-11.35-6.19-11.35-11.69Z"/>
        <polygon class="cls-1" points="152.75 123 152.75 99.17 150.03 99.17 150.03 109.74 138.5 109.74 138.5 99.17 135.78 99.17 135.78 123 138.5 123 138.5 112.15 150.03 112.15 150.03 123 152.75 123"/>
        <polygon class="cls-1" points="89.92 169.22 89.66 169.37 89.39 169.22 24.56 132.13 24.3 131.98 24.3 130.39 24.3 57.13 24.3 56.5 24.56 56.35 89.39 19.26 89.66 19.11 89.92 19.26 148.22 52.68 150.33 52.68 90.44 18.34 89.92 18.04 89.66 17.89 88.87 18.34 24.04 55.44 23.51 55.74 23.25 55.89 23.25 57.13 23.25 130.39 23.25 132.59 24.04 133.04 88.87 170.13 89.39 170.43 89.66 170.58 90.44 170.13 153.85 133.85 151.74 133.85 89.92 169.22"/>
        <polygon class="cls-1" points="89.66 21.11 89.16 21.39 27.56 56.77 27.06 57.06 27.06 57.95 27.06 128.7 27.06 130.5 27.56 130.78 89.16 166.16 89.66 166.45 90.15 166.16 146.41 133.85 142.27 133.85 89.66 164.07 28.06 128.7 28.06 57.95 89.66 22.57 142.09 52.68 144.63 52.68 90.15 21.39 89.66 21.11"/>
      </g>
    </g>
  </g>
</svg>